# xmcd
#
# Track frame offsets: 
#        150
#        19153
#        36503
#        49538
#        66640
#        82480
#        94159
#        104961
#        124996
#        135773
#        150013
#        167386
#        187031
#        200429
#        215981
#        235409
#        247948
#
# Disc length: 3506 seconds
#
# Revision: 0
# Processed by: cddbd v1.5.2PL0 Copyright (c) Steve Scherf et al.
# Submitted via: ExactAudioCopy v0.99pb5
#
DISCID=f80db011
DTITLE=Various Artist - 100 70'er Hits [CD2]
DYEAR=2009
DGENRE=Rock
TTITLE0=Lou Reed - Walk On The Wild Side
TTITLE1=Albert Hammond - It Never Rains In Southern California
TTITLE2=Lynn Anderson - Rose Garden
TTITLE3=Rugsted and Kreutzfeldt - Sad i Parken
TTITLE4=Toto - Hold The Line
TTITLE5=The Southerland Brothers - Arms Of Mary
TTITLE6=The Tourists - I Only Wanne Be With You
TTITLE7=The Manhattans - Kiss And say Goodbye
TTITLE8=Dayl Hall and John Oates - Rich Girl
TTITLE9=Michael Nesmith and The First National Band - Silver Moon
TTITLE10=The Guess Who - American Woman
TTITLE11=Maynard Ferguson - Gonna Fly
TTITLE12=Waylon Jennings - Good Hearted Woman
TTITLE13=Dawn - Tie A Yellow Ribbon Round The Old Oak Tree
TTITLE14=Sebastian - Den Sidste Vals
TTITLE15=Deniece Williams - Free
TTITLE16=Nilsson - Without You
EXTD=
EXTT0=
EXTT1=
EXTT2=
EXTT3=
EXTT4=
EXTT5=
EXTT6=
EXTT7=
EXTT8=
EXTT9=
EXTT10=
EXTT11=
EXTT12=
EXTT13=
EXTT14=
EXTT15=
EXTT16=
PLAYORDER=
